<mxfile host="app.diagrams.net" modified="2022-06-01T00:37:26.427Z" agent="5.0 (Macintosh; Intel Mac OS X 10_15_7) AppleWebKit/537.36 (KHTML, like Gecko) Chrome/101.0.4951.64 Safari/537.36" etag="oq-80ZsGILwX1QsXVHVD" version="18.1.3" type="github">
  <diagram id="3228e29e-7158-1315-38df-8450db1d8a1d" name="Page-1">
    <mxGraphModel dx="1298" dy="419" grid="0" gridSize="10" guides="1" tooltips="1" connect="1" arrows="1" fold="1" page="1" pageScale="1" pageWidth="600" pageHeight="280" background="#EFF1F3" math="0" shadow="0">
      <root>
        <mxCell id="0" />
        <mxCell id="1" parent="0" />
        <mxCell id="iBPsRAh9qP_mlPzIU75o-10" value="&lt;font style=&quot;font-size: 24px;&quot; color=&quot;#ffffff&quot;&gt;上游&lt;/font&gt;" style="rounded=1;whiteSpace=wrap;html=1;fillColor=#4A919B;strokeColor=none;" parent="1" vertex="1">
          <mxGeometry x="91" y="326" width="120" height="189" as="geometry" />
        </mxCell>
        <mxCell id="iBPsRAh9qP_mlPzIU75o-13" value="&lt;font color=&quot;#535e80&quot; style=&quot;font-size: 11px;&quot;&gt;请求后立马返回&lt;/font&gt;" style="text;html=1;strokeColor=none;fillColor=none;align=center;verticalAlign=middle;whiteSpace=wrap;rounded=0;" parent="1" vertex="1">
          <mxGeometry x="233.5" y="341" width="138.5" height="33" as="geometry" />
        </mxCell>
        <mxCell id="iBPsRAh9qP_mlPzIU75o-16" value="&lt;font style=&quot;font-size: 24px;&quot; color=&quot;#ffffff&quot;&gt;下游&lt;/font&gt;" style="rounded=1;whiteSpace=wrap;html=1;fillColor=#4A919B;strokeColor=none;" parent="1" vertex="1">
          <mxGeometry x="389" y="326" width="120" height="189" as="geometry" />
        </mxCell>
        <mxCell id="iBPsRAh9qP_mlPzIU75o-30" value="&lt;font color=&quot;#535e80&quot; style=&quot;font-size: 12px;&quot;&gt;响应&lt;/font&gt;" style="text;html=1;strokeColor=none;fillColor=none;align=center;verticalAlign=middle;whiteSpace=wrap;rounded=0;" parent="1" vertex="1">
          <mxGeometry x="275.5" y="474.5" width="60" height="30" as="geometry" />
        </mxCell>
        <mxCell id="iBPsRAh9qP_mlPzIU75o-31" value="&lt;font style=&quot;font-size: 11px;&quot;&gt;&lt;font color=&quot;#535e80&quot;&gt;下游&lt;br style=&quot;font-size: 11px;&quot;&gt;异步&lt;br&gt;处理&lt;/font&gt;&lt;br&gt;&lt;/font&gt;" style="text;html=1;strokeColor=none;fillColor=none;align=center;verticalAlign=middle;whiteSpace=wrap;rounded=0;" parent="1" vertex="1">
          <mxGeometry x="328.5" y="409.5" width="82" height="34" as="geometry" />
        </mxCell>
        <mxCell id="iBPsRAh9qP_mlPzIU75o-32" value="" style="endArrow=openThin;html=1;rounded=0;fontSize=24;fontColor=#4A919B;fillColor=#FDD276;dashed=1;strokeWidth=3;strokeColor=#535E80;endFill=0;" parent="1" edge="1">
          <mxGeometry width="50" height="50" relative="1" as="geometry">
            <mxPoint x="353.5" y="387" as="sourcePoint" />
            <mxPoint x="352.5" y="475.5" as="targetPoint" />
          </mxGeometry>
        </mxCell>
        <mxCell id="iBPsRAh9qP_mlPzIU75o-33" value="" style="endArrow=openThin;html=1;rounded=0;fontSize=24;fontColor=#4A919B;fillColor=#FDD276;dashed=1;strokeWidth=3;endFill=0;strokeColor=#535E80;" parent="1" edge="1">
          <mxGeometry width="50" height="50" relative="1" as="geometry">
            <mxPoint x="248.5" y="476.5" as="sourcePoint" />
            <mxPoint x="248.5" y="510.5" as="targetPoint" />
          </mxGeometry>
        </mxCell>
        <mxCell id="iBPsRAh9qP_mlPzIU75o-34" value="" style="endArrow=none;html=1;rounded=0;fontSize=24;fontColor=#4A919B;fillColor=#FDD276;dashed=1;strokeWidth=3;endFill=0;strokeColor=#535E80;startArrow=none;startFill=0;" parent="1" edge="1">
          <mxGeometry width="50" height="50" relative="1" as="geometry">
            <mxPoint x="249.5" y="331.5" as="sourcePoint" />
            <mxPoint x="249.5" y="372.5" as="targetPoint" />
          </mxGeometry>
        </mxCell>
        <mxCell id="iBPsRAh9qP_mlPzIU75o-35" value="" style="endArrow=openThin;html=1;rounded=0;dashed=1;fontSize=16;fontColor=#4A919B;strokeColor=#535E80;fillColor=#FDD276;strokeWidth=3;endFill=0;" parent="1" edge="1">
          <mxGeometry width="50" height="50" relative="1" as="geometry">
            <mxPoint x="253.5" y="372.5" as="sourcePoint" />
            <mxPoint x="350.5" y="372.5" as="targetPoint" />
          </mxGeometry>
        </mxCell>
        <mxCell id="iBPsRAh9qP_mlPzIU75o-36" value="" style="endArrow=none;html=1;rounded=0;dashed=1;fontSize=16;fontColor=#4A919B;strokeColor=#535E80;fillColor=#FDD276;strokeWidth=3;startArrow=openThin;startFill=0;endFill=0;" parent="1" edge="1">
          <mxGeometry width="50" height="50" relative="1" as="geometry">
            <mxPoint x="256.5" y="476.5" as="sourcePoint" />
            <mxPoint x="345.5" y="476.5" as="targetPoint" />
          </mxGeometry>
        </mxCell>
        <mxCell id="iBPsRAh9qP_mlPzIU75o-37" value="" style="endArrow=none;html=1;rounded=0;dashed=1;fontSize=16;fontColor=#4A919B;strokeColor=#F19C99;fillColor=#FDD276;strokeWidth=3;endFill=0;startArrow=openThin;startFill=0;" parent="1" edge="1">
          <mxGeometry width="50" height="50" relative="1" as="geometry">
            <mxPoint x="246" y="380" as="sourcePoint" />
            <mxPoint x="351.5" y="380" as="targetPoint" />
          </mxGeometry>
        </mxCell>
        <mxCell id="iBPsRAh9qP_mlPzIU75o-38" value="" style="endArrow=openThin;html=1;rounded=0;fontSize=24;fontColor=#4A919B;fillColor=#FDD276;dashed=1;strokeWidth=3;strokeColor=#F19C99;endFill=0;" parent="1" edge="1">
          <mxGeometry width="50" height="50" relative="1" as="geometry">
            <mxPoint x="249.5" y="386" as="sourcePoint" />
            <mxPoint x="248.5000000000001" y="474.5" as="targetPoint" />
          </mxGeometry>
        </mxCell>
        <mxCell id="iBPsRAh9qP_mlPzIU75o-39" value="&lt;font style=&quot;font-size: 11px;&quot;&gt;&lt;font color=&quot;#f19c99&quot;&gt;上游&lt;br&gt;处理&lt;br&gt;其他&lt;br&gt;事情&lt;/font&gt;&lt;br&gt;&lt;/font&gt;" style="text;html=1;strokeColor=none;fillColor=none;align=center;verticalAlign=middle;whiteSpace=wrap;rounded=0;" parent="1" vertex="1">
          <mxGeometry x="194.5" y="406.5" width="82" height="34" as="geometry" />
        </mxCell>
      </root>
    </mxGraphModel>
  </diagram>
</mxfile>
